<?xml version="1.0" encoding="UTF-8" standalone="no"?>
<!DOCTYPE svg PUBLIC "-//W3C//DTD SVG 1.0//EN" "http://www.w3.org/TR/2001/REC-SVG-20010904/DTD/svg10.dtd">
<!-- Generated by Microsoft Visio 11.0, SVG Export, v1.0 ast-example.svg Page-1 -->
<svg xmlns="http://www.w3.org/2000/svg" xmlns:xlink="http://www.w3.org/1999/xlink" xmlns:ev="http://www.w3.org/2001/xml-events"
		xmlns:v="http://schemas.microsoft.com/visio/2003/SVGExtensions/" width="6in" height="4in" viewBox="0 0 432 288"
		xml:space="preserve" color-interpolation-filters="sRGB" class="st5">
	<v:documentProperties v:langID="1033" v:viewMarkup="false">
		<v:userDefs>
			<v:ud v:nameU="msvNoAutoConnect" v:val="VT0(1):26"/>
		</v:userDefs>
	</v:documentProperties>

	<style type="text/css">
	<![CDATA[
		.st1 {fill:#ffffff;stroke:#000000;stroke-linecap:round;stroke-linejoin:round;stroke-width:0.24}
		.st2 {fill:#000000;font-family:Arial;font-size:0.833336em}
		.st3 {font-size:1em}
		.st4 {stroke:#000000;stroke-linecap:round;stroke-linejoin:round;stroke-width:0.25}
		.st5 {fill:none;fill-rule:evenodd;font-size:12px;overflow:visible;stroke-linecap:square;stroke-miterlimit:3}
	]]>
	</style>

	<g v:mID="0" v:index="1" v:groupContext="foregroundPage">
		<title>Page-1</title>
		<v:pageProperties v:drawingScale="1" v:pageScale="1" v:drawingUnits="19" v:shadowOffsetX="9" v:shadowOffsetY="-9"/>
		<v:layer v:name="Connector" v:index="0"/>
		<g id="shape1-1" v:mID="1" v:groupContext="shape" transform="translate(164.48,-234)">
			<title>Ellipse</title>
			<desc>Function &#60;doSomething&#62;</desc>
			<v:userDefs>
				<v:ud v:nameU="visVersion" v:val="VT0(14):26"/>
			</v:userDefs>
			<v:textBlock v:margins="rect(4,4,4,4)" v:tabSpace="42.5197"/>
			<v:textRect cx="52.7598" cy="270" width="92.33" height="31.5"/>
			<path d="M0 270 A52.7598 18 0 1 1 105.52 270 A52.7598 18 0 0 1 0 270 Z" class="st1"/>
			<text x="33.58" y="267" class="st2" v:langID="1033"><v:paragraph v:horizAlign="1"/><v:tabList/>Function<v:newlineChar/><tspan
						x="17.45" dy="1.2em" class="st3">&#60;</tspan>doSomething&#62;</text>		</g>
		<g id="shape2-5" v:mID="2" v:groupContext="shape" transform="translate(18,-189)">
			<title>Ellipse.2</title>
			<desc>Returns &#60;int&#62;</desc>
			<v:userDefs>
				<v:ud v:nameU="visVersion" v:val="VT0(14):26"/>
			</v:userDefs>
			<v:textBlock v:margins="rect(4,4,4,4)" v:tabSpace="42.5197"/>
			<v:textRect cx="29.0197" cy="270" width="50.79" height="31.5"/>
			<path d="M0 270 A29.0197 18 0 1 1 58.04 270 A29.0197 18 0 1 1 0 270 Z" class="st1"/>
			<text x="11.51" y="267" class="st2" v:langID="1033"><v:paragraph v:horizAlign="1"/><v:tabList/>Returns<v:newlineChar/><tspan
						x="17.9" dy="1.2em" class="st3">&#60;</tspan>int&#62;</text>		</g>
		<g id="shape5-9" v:mID="5" v:groupContext="shape" transform="translate(198,-144)">
			<title>Ellipse.5</title>
			<desc>If</desc>
			<v:userDefs>
				<v:ud v:nameU="visVersion" v:val="VT0(14):26"/>
			</v:userDefs>
			<v:textBlock v:margins="rect(4,4,4,4)" v:tabSpace="42.5197"/>
			<v:textRect cx="32.5098" cy="270" width="56.9" height="31.5"/>
			<path d="M0 270 A32.5098 18 0 1 1 65.02 270 A32.5098 18 0 1 1 0 270 Z" class="st1"/>
			<text x="29.73" y="273" class="st2" v:langID="1033"><v:paragraph v:horizAlign="1"/><v:tabList/>If</text>		</g>
		<g id="shape6-12" v:mID="6" v:groupContext="shape" transform="translate(114.245,-99)">
			<title>Ellipse.6</title>
			<desc>GreaterThan</desc>
			<v:userDefs>
				<v:ud v:nameU="visVersion" v:val="VT0(14):26"/>
			</v:userDefs>
			<v:textBlock v:margins="rect(4,4,4,4)" v:tabSpace="42.5197"/>
			<v:textRect cx="38.7549" cy="270" width="67.83" height="31.5"/>
			<path d="M0 270 A38.7549 18 0 1 1 77.51 270 A38.7549 18 0 1 1 -0 270 Z" class="st1"/>
			<text x="10.41" y="273" class="st2" v:langID="1033"><v:paragraph v:horizAlign="1"/><v:tabList/>GreaterThan</text>		</g>
		<g id="shape7-15" v:mID="7" v:groupContext="shape" transform="translate(81,-54)">
			<title>Ellipse.7</title>
			<desc>Variable &#60;a&#62;</desc>
			<v:userDefs>
				<v:ud v:nameU="visVersion" v:val="VT0(14):26"/>
			</v:userDefs>
			<v:textBlock v:margins="rect(4,4,4,4)" v:tabSpace="42.5197"/>
			<v:textRect cx="32.5098" cy="270" width="56.9" height="31.5"/>
			<path d="M0 270 A32.5098 18 0 1 1 65.02 270 A32.5098 18 0 1 1 0 270 Z" class="st1"/>
			<text x="14.17" y="267" class="st2" v:langID="1033"><v:paragraph v:horizAlign="1"/><v:tabList/>Variable<v:newlineChar/><tspan
						x="23.89" dy="1.2em" class="st3">&#60;</tspan>a&#62;</text>		</g>
		<g id="shape8-19" v:mID="8" v:groupContext="shape" transform="translate(153,-54)">
			<title>Ellipse.8</title>
			<desc>Integer &#60;10&#62;</desc>
			<v:userDefs>
				<v:ud v:nameU="visVersion" v:val="VT0(14):26"/>
			</v:userDefs>
			<v:textBlock v:margins="rect(4,4,4,4)" v:tabSpace="42.5197"/>
			<v:textRect cx="32.5098" cy="270" width="56.9" height="31.5"/>
			<path d="M0 270 A32.5098 18 0 1 1 65.02 270 A32.5098 18 0 1 1 0 270 Z" class="st1"/>
			<text x="16.94" y="267" class="st2" v:langID="1033"><v:paragraph v:horizAlign="1"/><v:tabList/>Integer<v:newlineChar/><tspan
						x="21.11" dy="1.2em" class="st3">&#60;</tspan>10&#62;</text>		</g>
		<g id="shape9-23" v:mID="9" v:groupContext="shape" transform="translate(258.98,-189)">
			<title>Ellipse.9</title>
			<desc>Body</desc>
			<v:userDefs>
				<v:ud v:nameU="visVersion" v:val="VT0(14):26"/>
			</v:userDefs>
			<v:textBlock v:margins="rect(4,4,4,4)" v:tabSpace="42.5197"/>
			<v:textRect cx="32.5098" cy="270" width="56.9" height="31.5"/>
			<path d="M0 270 A32.5098 18 0 1 1 65.02 270 A32.5098 18 0 1 1 0 270 Z" class="st1"/>
			<text x="21.11" y="273" class="st2" v:langID="1033"><v:paragraph v:horizAlign="1"/><v:tabList/>Body</text>		</g>
		<g id="shape10-26" v:mID="10" v:groupContext="shape" transform="translate(243,-99)">
			<title>Ellipse.10</title>
			<desc>AssignModulo</desc>
			<v:userDefs>
				<v:ud v:nameU="visVersion" v:val="VT0(14):26"/>
			</v:userDefs>
			<v:textBlock v:margins="rect(4,4,4,4)" v:tabSpace="42.5197"/>
			<v:textRect cx="43.2549" cy="270" width="75.7" height="31.5"/>
			<path d="M0 270 A43.2549 18 0 0 1 86.51 270 A43.2549 18 0 1 1 0 270 Z" class="st1"/>
			<text x="11.85" y="273" class="st2" v:langID="1033"><v:paragraph v:horizAlign="1"/><v:tabList/>AssignModulo</text>		</g>
		<g id="shape12-29" v:mID="12" v:groupContext="shape" v:layerMember="0" transform="translate(217.24,-238.5)">
			<title>Dynamic connector.12</title>
			<path d="M0 292.5 L74.25 301.5" class="st4"/>
		</g>
		<g id="shape14-32" v:mID="14" v:groupContext="shape" v:layerMember="0" transform="translate(291.49,-193.5)">
			<title>Dynamic connector.14</title>
			<path d="M0 292.5 L-60.98 301.5" class="st4"/>
		</g>
		<g id="shape15-35" v:mID="15" v:groupContext="shape" v:layerMember="0" transform="translate(230.51,-148.5)">
			<title>Dynamic connector.15</title>
			<path d="M0 292.5 L-77.51 301.5" class="st4"/>
		</g>
		<g id="shape4-38" v:mID="4" v:groupContext="shape" transform="translate(227.48,-54)">
			<title>Ellipse.4</title>
			<desc>Variable &#60;a&#62;</desc>
			<v:userDefs>
				<v:ud v:nameU="visVersion" v:val="VT0(14):26"/>
			</v:userDefs>
			<v:textBlock v:margins="rect(4,4,4,4)" v:tabSpace="42.5197"/>
			<v:textRect cx="32.5098" cy="270" width="56.9" height="31.5"/>
			<path d="M0 270 A32.5098 18 0 1 1 65.02 270 A32.5098 18 0 1 1 0 270 Z" class="st1"/>
			<text x="14.17" y="267" class="st2" v:langID="1033"><v:paragraph v:horizAlign="1"/><v:tabList/>Variable<v:newlineChar/><tspan
						x="23.89" dy="1.2em" class="st3">&#60;</tspan>a&#62;</text>		</g>
		<g id="shape16-42" v:mID="16" v:groupContext="shape" transform="translate(300.49,-54)">
			<title>Ellipse.16</title>
			<desc>Integer &#60;10&#62;</desc>
			<v:userDefs>
				<v:ud v:nameU="visVersion" v:val="VT0(14):26"/>
			</v:userDefs>
			<v:textBlock v:margins="rect(4,4,4,4)" v:tabSpace="42.5197"/>
			<v:textRect cx="32.5098" cy="270" width="56.9" height="31.5"/>
			<path d="M0 270 A32.5098 18 0 1 1 65.02 270 A32.5098 18 0 1 1 0 270 Z" class="st1"/>
			<text x="16.94" y="267" class="st2" v:langID="1033"><v:paragraph v:horizAlign="1"/><v:tabList/>Integer<v:newlineChar/><tspan
						x="21.11" dy="1.2em" class="st3">&#60;</tspan>10&#62;</text>		</g>
		<g id="shape17-46" v:mID="17" v:groupContext="shape" transform="translate(325.745,-144)">
			<title>Ellipse.17</title>
			<desc>Return</desc>
			<v:userDefs>
				<v:ud v:nameU="visVersion" v:val="VT0(14):26"/>
			</v:userDefs>
			<v:textBlock v:margins="rect(4,4,4,4)" v:tabSpace="42.5197"/>
			<v:textRect cx="43.2549" cy="270" width="75.7" height="31.5"/>
			<path d="M0 270 A43.2549 18 0 0 1 86.51 270 A43.2549 18 0 1 1 0 270 Z" class="st1"/>
			<text x="28.25" y="273" class="st2" v:langID="1033"><v:paragraph v:horizAlign="1"/><v:tabList/>Return</text>		</g>
		<g id="shape18-49" v:mID="18" v:groupContext="shape" transform="translate(336.49,-99)">
			<title>Ellipse.18</title>
			<desc>Variable &#60;a&#62;</desc>
			<v:userDefs>
				<v:ud v:nameU="visVersion" v:val="VT0(14):26"/>
			</v:userDefs>
			<v:textBlock v:margins="rect(4,4,4,4)" v:tabSpace="42.5197"/>
			<v:textRect cx="32.5098" cy="270" width="56.9" height="31.5"/>
			<path d="M0 270 A32.5098 18 0 1 1 65.02 270 A32.5098 18 0 1 1 0 270 Z" class="st1"/>
			<text x="14.17" y="267" class="st2" v:langID="1033"><v:paragraph v:horizAlign="1"/><v:tabList/>Variable<v:newlineChar/><tspan
						x="23.89" dy="1.2em" class="st3">&#60;</tspan>a&#62;</text>		</g>
		<g id="shape3-53" v:mID="3" v:groupContext="shape" transform="translate(109.745,-189)">
			<title>Ellipse.3</title>
			<desc>Arguments</desc>
			<v:userDefs>
				<v:ud v:nameU="visVersion" v:val="VT0(14):26"/>
			</v:userDefs>
			<v:textBlock v:margins="rect(4,4,4,4)" v:tabSpace="42.5197"/>
			<v:textRect cx="43.2549" cy="270" width="75.7" height="31.5"/>
			<path d="M0 270 A43.2549 18 0 0 1 86.51 270 A43.2549 18 0 1 1 0 270 Z" class="st1"/>
			<text x="19.08" y="273" class="st2" v:langID="1033"><v:paragraph v:horizAlign="1"/><v:tabList/>Arguments</text>		</g>
		<g id="shape11-56" v:mID="11" v:groupContext="shape" transform="translate(21.4902,-144)">
			<title>Ellipse.11</title>
			<desc>Declare &#60;int&#62;</desc>
			<v:userDefs>
				<v:ud v:nameU="visVersion" v:val="VT0(14):26"/>
			</v:userDefs>
			<v:textBlock v:margins="rect(4,4,4,4)" v:tabSpace="42.5197"/>
			<v:textRect cx="43.2549" cy="270" width="75.7" height="31.5"/>
			<path d="M0 270 A43.2549 18 0 0 1 86.51 270 A43.2549 18 0 1 1 0 270 Z" class="st1"/>
			<text x="26.03" y="267" class="st2" v:langID="1033"><v:paragraph v:horizAlign="1"/><v:tabList/>Declare<v:newlineChar/><tspan
						x="32.13" dy="1.2em" class="st3">&#60;</tspan>int&#62;</text>		</g>
		<g id="shape13-60" v:mID="13" v:groupContext="shape" v:layerMember="0" transform="translate(217.24,-238.5)">
			<title>Dynamic connector</title>
			<path d="M0 292.5 L-64.24 301.5" class="st4"/>
		</g>
		<g id="shape19-63" v:mID="19" v:groupContext="shape" v:layerMember="0" transform="translate(217.24,-238.5)">
			<title>Dynamic connector.19</title>
			<path d="M0 292.5 L-170.22 301.5" class="st4"/>
		</g>
		<g id="shape20-66" v:mID="20" v:groupContext="shape" v:layerMember="0" transform="translate(153,-193.5)">
			<title>Dynamic connector.20</title>
			<path d="M0 292.5 L-88.25 301.5" class="st4"/>
		</g>
		<g id="shape21-69" v:mID="21" v:groupContext="shape" v:layerMember="0" transform="translate(153,-103.5)">
			<title>Dynamic connector.21</title>
			<path d="M0 292.5 L-39.49 301.5" class="st4"/>
		</g>
		<g id="shape22-72" v:mID="22" v:groupContext="shape" v:layerMember="0" transform="translate(153,-103.5)">
			<title>Dynamic connector.22</title>
			<path d="M0 292.5 L32.51 301.5" class="st4"/>
		</g>
		<g id="shape23-75" v:mID="23" v:groupContext="shape" v:layerMember="0" transform="translate(230.51,-148.5)">
			<title>Dynamic connector.23</title>
			<path d="M0 292.5 L55.75 301.5" class="st4"/>
		</g>
		<g id="shape24-78" v:mID="24" v:groupContext="shape" v:layerMember="0" transform="translate(286.255,-103.5)">
			<title>Dynamic connector.24</title>
			<path d="M0 292.5 L-26.26 301.5" class="st4"/>
		</g>
		<g id="shape25-81" v:mID="25" v:groupContext="shape" v:layerMember="0" transform="translate(286.255,-103.5)">
			<title>Dynamic connector.25</title>
			<path d="M0 292.5 L46.75 301.5" class="st4"/>
		</g>
		<g id="shape26-84" v:mID="26" v:groupContext="shape" v:layerMember="0" transform="translate(291.49,-193.5)">
			<title>Dynamic connector.26</title>
			<path d="M0 292.5 L77.51 301.5" class="st4"/>
		</g>
		<g id="shape27-87" v:mID="27" v:groupContext="shape" v:layerMember="0" transform="translate(360,-148.5)">
			<title>Dynamic connector.27</title>
			<path d="M9 292.5 L9 301.5" class="st4"/>
		</g>
		<g id="shape28-90" v:mID="28" v:groupContext="shape" transform="translate(32.2352,-99)">
			<title>Ellipse.28</title>
			<desc>Variable &#60;a&#62;</desc>
			<v:userDefs>
				<v:ud v:nameU="visVersion" v:val="VT0(14):26"/>
			</v:userDefs>
			<v:textBlock v:margins="rect(4,4,4,4)" v:tabSpace="42.5197"/>
			<v:textRect cx="32.5098" cy="270" width="56.9" height="31.5"/>
			<path d="M0 270 A32.5098 18 0 1 1 65.02 270 A32.5098 18 0 1 1 0 270 Z" class="st1"/>
			<text x="14.17" y="267" class="st2" v:langID="1033"><v:paragraph v:horizAlign="1"/><v:tabList/>Variable<v:newlineChar/><tspan
						x="23.89" dy="1.2em" class="st3">&#60;</tspan>a&#62;</text>		</g>
		<g id="shape29-94" v:mID="29" v:groupContext="shape" v:layerMember="0" transform="translate(55.7451,-148.5)">
			<title>Dynamic connector.29</title>
			<path d="M9 292.5 L9 301.5" class="st4"/>
		</g>
	</g>
</svg>
