<?xml version="1.0" encoding="UTF-8" standalone="no"?>
<!DOCTYPE svg PUBLIC "-//W3C//DTD SVG 1.0//EN" "http://www.w3.org/TR/2001/REC-SVG-20010904/DTD/svg10.dtd">
<!-- Generated by Microsoft Visio 11.0, SVG Export, v1.0 compiler-phases.svg Page-1 -->
<svg xmlns="http://www.w3.org/2000/svg" xmlns:xlink="http://www.w3.org/1999/xlink" xmlns:ev="http://www.w3.org/2001/xml-events"
		xmlns:v="http://schemas.microsoft.com/visio/2003/SVGExtensions/" width="5.9375in" height="4in" viewBox="0 0 427.5 288"
		xml:space="preserve" color-interpolation-filters="sRGB" class="st10">
	<v:documentProperties v:langID="1033" v:viewMarkup="false">
		<v:userDefs>
			<v:ud v:nameU="msvNoAutoConnect" v:val="VT0(1):26"/>
		</v:userDefs>
	</v:documentProperties>

	<style type="text/css">
	<![CDATA[
		.st1 {fill:#ffffff;stroke:#000000;stroke-linecap:round;stroke-linejoin:round;stroke-width:0.24}
		.st2 {fill:#000000;font-family:Arial;font-size:0.75em}
		.st3 {fill:none;stroke:#000000;stroke-linecap:round;stroke-linejoin:round;stroke-width:0.24}
		.st4 {marker-end:url(#mrkr13-28);stroke:#000000;stroke-linecap:round;stroke-linejoin:round;stroke-width:0.239976}
		.st5 {fill:#000000;fill-opacity:1;stroke:#000000;stroke-opacity:1;stroke-width:0.086948582161584}
		.st6 {fill:#595959;stroke:none;stroke-linecap:butt;stroke-width:0.75}
		.st7 {stroke:#595959;stroke-linecap:round;stroke-linejoin:round;stroke-width:1}
		.st8 {marker-end:url(#mrkr13-63);stroke:#000000;stroke-linecap:round;stroke-linejoin:round;stroke-width:0.239976}
		.st9 {stroke:#000000;stroke-linecap:round;stroke-linejoin:round;stroke-width:0.24}
		.st10 {fill:none;fill-rule:evenodd;font-size:12px;overflow:visible;stroke-linecap:square;stroke-miterlimit:3}
	]]>
	</style>

	<defs id="Markers">
		<g id="lend13">
			<path d="M 3 1 L 0 0 L 3 -1 L 3 1 " style="stroke:none"/>
		</g>
		<marker id="mrkr13-28" class="st5" v:arrowType="13" v:arrowSize="2" v:setback="34.5032" refX="-34.503150315032"
				orient="auto" markerUnits="strokeWidth" overflow="visible">
			<use xlink:href="#lend13" transform="scale(-11.501050105011,-11.501050105011) "/>
		</marker>
		<marker id="mrkr13-63" class="st5" v:arrowType="13" v:arrowSize="2" v:setback="33.003" refX="-33.00300030003" orient="auto"
				markerUnits="strokeWidth" overflow="visible">
			<use xlink:href="#lend13" transform="scale(-11.501050105011,-11.501050105011) "/>
		</marker>
	</defs>
	<g v:mID="0" v:index="1" v:groupContext="foregroundPage">
		<title>Page-1</title>
		<v:pageProperties v:drawingScale="1" v:pageScale="1" v:drawingUnits="19" v:shadowOffsetX="9" v:shadowOffsetY="-9"/>
		<v:layer v:name="Callout" v:index="0"/>
		<v:layer v:name="Connector" v:index="1"/>
		<g id="shape1-1" v:mID="1" v:groupContext="shape" transform="translate(27,-175.73)">
			<title>Rounded rectangle</title>
			<desc>Lexical Analysis</desc>
			<v:userDefs>
				<v:ud v:nameU="visVersion" v:val="VT0(14):26"/>
			</v:userDefs>
			<v:textBlock v:margins="rect(4,4,4,4)" v:tabSpace="42.5197"/>
			<v:textRect cx="58.5" cy="271.24" width="117" height="33.5197"/>
			<path d="M102.83 288 A14.1733 14.1733 -180 0 0 117 273.83 L117 268.65 A14.1733 14.1733 -180 0 0 102.83 254.48 L14.17
						 254.48 A14.1733 14.1733 -180 0 0 -0 268.65 L0 273.83 A14.1733 14.1733 -180 0 0 14.17 288 L102.83 288 Z"
					class="st1"/>
			<text x="26.49" y="273.94" class="st2" v:langID="1033"><v:paragraph v:horizAlign="1"/><v:tabList/>Lexical Analysis</text>		</g>
		<g id="shape2-4" v:mID="2" v:groupContext="shape" transform="translate(162,-175.73)">
			<title>Rounded rectangle.2</title>
			<desc>Syntax Analysis</desc>
			<v:userDefs>
				<v:ud v:nameU="visVersion" v:val="VT0(14):26"/>
			</v:userDefs>
			<v:textBlock v:margins="rect(4,4,4,4)" v:tabSpace="42.5197"/>
			<v:textRect cx="58.5" cy="271.24" width="117" height="33.5197"/>
			<path d="M102.83 288 A14.1733 14.1733 -180 0 0 117 273.83 L117 268.65 A14.1733 14.1733 -180 0 0 102.83 254.48 L14.17
						 254.48 A14.1733 14.1733 -180 0 0 -0 268.65 L0 273.83 A14.1733 14.1733 -180 0 0 14.17 288 L102.83 288 Z"
					class="st1"/>
			<text x="26.74" y="273.94" class="st2" v:langID="1033"><v:paragraph v:horizAlign="1"/><v:tabList/>Syntax Analysis</text>		</g>
		<g id="shape3-7" v:mID="3" v:groupContext="shape" transform="translate(296.114,-175.73)">
			<title>Rounded rectangle.3</title>
			<desc>Semantic Analysis</desc>
			<v:userDefs>
				<v:ud v:nameU="visVersion" v:val="VT0(14):26"/>
			</v:userDefs>
			<v:textBlock v:margins="rect(4,4,4,4)" v:tabSpace="42.5197"/>
			<v:textRect cx="54.4429" cy="271.24" width="108.89" height="33.5197"/>
			<path d="M94.71 288 A14.1733 14.1733 -180 0 0 108.89 273.83 L108.89 268.65 A14.1733 14.1733 -180 0 0 94.71 254.48 L14.17
						 254.48 A14.1733 14.1733 -180 0 0 -0 268.65 L0 273.83 A14.1733 14.1733 -180 0 0 14.17 288 L94.71 288 Z"
					class="st1"/>
			<text x="17.68" y="273.94" class="st2" v:langID="1033"><v:paragraph v:horizAlign="1"/><v:tabList/>Semantic Analysis</text>		</g>
		<g id="shape4-10" v:mID="4" v:groupContext="shape" transform="translate(36,-73.2402)">
			<title>Rounded rectangle.4</title>
			<desc>Analysis</desc>
			<v:userDefs>
				<v:ud v:nameU="visVersion" v:val="VT0(14):26"/>
			</v:userDefs>
			<v:textBlock v:margins="rect(4,4,4,4)" v:tabSpace="42.5197"/>
			<v:textRect cx="54.4429" cy="271.24" width="108.89" height="33.5197"/>
			<path d="M94.71 288 A14.1733 14.1733 -180 0 0 108.89 273.83 L108.89 268.65 A14.1733 14.1733 -180 0 0 94.71 254.48 L14.17
						 254.48 A14.1733 14.1733 -180 0 0 -0 268.65 L0 273.83 A14.1733 14.1733 -180 0 0 14.17 288 L94.71 288 Z"
					class="st1"/>
			<text x="37.69" y="273.94" class="st2" v:langID="1033"><v:paragraph v:horizAlign="1"/><v:tabList/>Analysis</text>		</g>
		<g id="shape5-13" v:mID="5" v:groupContext="shape" transform="translate(162,-73.2402)">
			<title>Rounded rectangle.5</title>
			<desc>Optimization</desc>
			<v:userDefs>
				<v:ud v:nameU="visVersion" v:val="VT0(14):26"/>
			</v:userDefs>
			<v:textBlock v:margins="rect(4,4,4,4)" v:tabSpace="42.5197"/>
			<v:textRect cx="54" cy="271.24" width="108" height="33.5197"/>
			<path d="M93.83 288 A14.1733 14.1733 -180 0 0 108 273.83 L108 268.65 A14.1733 14.1733 -180 0 0 93.83 254.48 L14.17 254.48
						 A14.1733 14.1733 -180 0 0 -0 268.65 L0 273.83 A14.1733 14.1733 -180 0 0 14.17 288 L93.83 288 Z"
					class="st1"/>
			<text x="28.99" y="273.94" class="st2" v:langID="1033"><v:paragraph v:horizAlign="1"/><v:tabList/>Optimization</text>		</g>
		<g id="shape6-16" v:mID="6" v:groupContext="shape" transform="translate(288,-73.2402)">
			<title>Rounded rectangle.6</title>
			<desc>Code Generation</desc>
			<v:userDefs>
				<v:ud v:nameU="visVersion" v:val="VT0(14):26"/>
			</v:userDefs>
			<v:textBlock v:margins="rect(4,4,4,4)" v:tabSpace="42.5197"/>
			<v:textRect cx="58.5" cy="271.24" width="117" height="33.5197"/>
			<path d="M102.83 288 A14.1733 14.1733 -180 0 0 117 273.83 L117 268.65 A14.1733 14.1733 -180 0 0 102.83 254.48 L14.17
						 254.48 A14.1733 14.1733 -180 0 0 -0 268.65 L0 273.83 A14.1733 14.1733 -180 0 0 14.17 288 L102.83 288 Z"
					class="st1"/>
			<text x="24.23" y="273.94" class="st2" v:langID="1033"><v:paragraph v:horizAlign="1"/><v:tabList/>Code Generation</text>		</g>
		<g id="shape7-19" v:mID="7" v:groupContext="shape" transform="translate(18,-168.75)">
			<title>Rectangle</title>
			<v:userDefs>
				<v:ud v:nameU="visVersion" v:val="VT0(14):26"/>
			</v:userDefs>
			<rect x="0" y="243" width="391.5" height="45" class="st3"/>
		</g>
		<g id="shape9-21" v:mID="9" v:groupContext="shape" transform="translate(18,-67.5)">
			<title>Rectangle.9</title>
			<v:userDefs>
				<v:ud v:nameU="visVersion" v:val="VT0(14):26"/>
			</v:userDefs>
			<rect x="0" y="243" width="391.5" height="45" class="st3"/>
		</g>
		<g id="shape11-23" v:mID="11" v:groupContext="shape" v:layerMember="1" transform="translate(144,-183.49)">
			<title>Dynamic connector</title>
			<v:userDefs>
				<v:ud v:nameU="visVersion" v:val="VT0(14):26"/>
			</v:userDefs>
			<path d="M0 279 L9.72 279" class="st4"/>
		</g>
		<g id="shape12-29" v:mID="12" v:groupContext="shape" v:layerMember="1" transform="translate(278.557,-183.49)">
			<title>Dynamic connector.12</title>
			<v:userDefs>
				<v:ud v:nameU="visVersion" v:val="VT0(14):26"/>
			</v:userDefs>
			<path d="M0.44 279 L9.28 279" class="st4"/>
		</g>
		<g id="shape13-34" v:mID="13" v:groupContext="shape" v:layerMember="1" transform="translate(144.443,-81)">
			<title>Dynamic connector.13</title>
			<v:userDefs>
				<v:ud v:nameU="visVersion" v:val="VT0(14):26"/>
			</v:userDefs>
			<path d="M0.44 279 L9.28 279" class="st4"/>
		</g>
		<g id="shape14-39" v:mID="14" v:groupContext="shape" v:layerMember="1" transform="translate(270,-81)">
			<title>Dynamic connector.14</title>
			<v:userDefs>
				<v:ud v:nameU="visVersion" v:val="VT0(14):26"/>
			</v:userDefs>
			<path d="M0 279 L9.72 279" class="st4"/>
		</g>
		<g id="shape15-44" v:mID="15" v:groupContext="shape" transform="translate(117,-126)">
			<title>Triangle</title>
			<desc>AST</desc>
			<v:userDefs>
				<v:ud v:nameU="visVersion" v:val="VT0(14):26"/>
			</v:userDefs>
			<v:textBlock v:margins="rect(4,4,4,4)" v:tabSpace="42.5197"/>
			<v:textRect cx="22.9429" cy="275.705" width="45.89" height="24.5906"/>
			<path d="M49.44 288 L22.94 251.11 L-3.55 288 L49.44 288 Z" class="st1"/>
			<text x="14.19" y="278.4" class="st2" v:langID="1033"><v:paragraph v:horizAlign="1"/><v:tabList/>AST</text>		</g>
		<g id="shape16-47" v:mID="16" v:groupContext="shape" transform="translate(18,-237.331)">
			<title>Document</title>
			<desc>Source code</desc>
			<v:userDefs>
				<v:ud v:nameU="msvShapeCategories" v:prompt="" v:val="VT4(Icon)"/>
				<v:ud v:nameU="visVersion" v:prompt="" v:val="VT0(14):26"/>
			</v:userDefs>
			<v:textBlock v:margins="rect(2,2,2,2)"/>
			<v:textRect cx="55.4869" cy="271.665" width="57.04" height="32.6693"/>
			<path d="M5.19 280.85 L5.19 279.83 L21.78 279.83 L21.78 280.85 L5.19 280.85 ZM5.19 276.77 L5.19 275.75 L21.78 275.75
						 L21.78 276.77 L5.19 276.77 ZM5.19 272.69 L5.19 271.67 L21.78 271.67 L21.78 272.69 L5.19 272.69 ZM5.19 268.6
						 L5.19 267.58 L21.78 267.58 L21.78 268.6 L5.19 268.6 ZM5.19 264.52 L5.19 263.5 L15.6 263.5 L15.6 264.52 L5.19
						 264.52 ZM24.89 285.96 L24.89 263.5 L18.67 263.5 L18.67 257.37 L2.07 257.37 L2.07 285.96 L24.89 285.96 ZM24.63
						 262.48 L19.71 257.63 L19.71 262.48 L24.63 262.48 ZM20.49 255.33 L26.97 261.71 L26.97 288 L0 288 L0 255.33
						 L20.49 255.33 Z" class="st6"/>
			<text x="28.97" y="274.37" class="st2" v:langID="1033"><v:paragraph/><v:tabList/>Source code</text>		</g>
		<g id="shape17-50" v:mID="17" v:groupContext="shape" transform="translate(243.337,-126.886)">
			<title>Database</title>
			<desc>Symbol Table</desc>
			<v:userDefs>
				<v:ud v:nameU="msvShapeCategories" v:prompt="" v:val="VT4(Icon)"/>
				<v:ud v:nameU="visVersion" v:prompt="" v:val="VT0(14):26"/>
			</v:userDefs>
			<v:textBlock v:margins="rect(2,2,2,2)"/>
			<v:textRect cx="56.0574" cy="270" width="61.53" height="36"/>
			<path d="M-0.02 258.86 A12.6644 6.71259 179.4 1 1 25.31 258.6 A12.6644 6.71259 179.4 1 1 -0.02 258.86" class="st7"/>
			<path d="M25.29 258.95 L25.29 280.45 A12.0475 6.99886 0 0 1 12.62 287.81 A12.0095 6.97678 0 0 1 0 280.45 L0 258.95"
					class="st7"/>
			<text x="27.29" y="272.7" class="st2" v:langID="1033"><v:paragraph/><v:tabList/>Symbol Table</text>		</g>
		<g id="shape18-55" v:mID="18" v:groupContext="shape" transform="translate(346.5,-20.25)">
			<title>Configure</title>
			<desc>Binary</desc>
			<v:userDefs>
				<v:ud v:nameU="msvShapeCategories" v:prompt="" v:val="VT4(Icon)"/>
				<v:ud v:nameU="visVersion" v:prompt="" v:val="VT0(14):26"/>
			</v:userDefs>
			<v:textBlock v:margins="rect(2,2,2,2)"/>
			<v:textRect cx="47.5072" cy="272.25" width="32.02" height="31.5"/>
			<path d="M28.89 276.27 C28.28 276.01 26.33 275.19 26.33 275.18 L26.46 273.56 L26.56 272.2 L26.39 269.59 L27.67 268.85
						 C27.67 268.85 28.32 268.58 28.93 268.33 C28.49 267.26 28.31 266.82 27.87 265.75 C27.26 266.01 25.24 266.84
						 25.24 266.84 L24.24 265.59 C23.76 264.98 23.16 264.41 22.41 263.83 L21.23 262.91 L21.71 261.46 C21.71 261.46
						 21.99 260.78 22.26 260.13 C21.19 259.69 20.75 259.51 19.69 259.07 C19.41 259.75 18.56 261.81 18.56 261.81
						 L16.99 261.65 C16.2 261.57 15.37 261.59 14.54 261.7 L13.05 261.9 L12.35 260.53 C12.35 260.53 12.05 259.81
						 11.75 259.1 C10.69 259.55 10.25 259.74 9.19 260.18 C9.51 260.93 10.4 263.04 10.39 263.04 L9.19 264.05 C8.61
						 264.52 8.08 265.09 7.55 265.77 L6.64 266.96 L5.19 266.49 C5.19 266.49 4.4 266.17 3.62 265.86 C3.19 266.93
						 3.01 267.37 2.59 268.44 C3.38 268.76 5.48 269.6 5.48 269.6 C5.48 269.6 5.35 272 5.34 272.19 C5.35 272.36
						 5.39 272.9 5.39 272.91 C5.39 272.91 5.51 274.17 5.51 274.17 L4.75 274.86 C4.52 275.1 4.44 275.16 2.55 275.9
						 C2.97 276.98 3.14 277.42 3.56 278.49 C4.35 278.19 6.55 277.33 6.55 277.33 L7.69 278.89 C8.04 279.32 8.53
						 279.81 9.13 280.32 L10.24 281.26 L9.75 282.66 C9.75 282.66 9.41 283.45 9.08 284.23 C10.13 284.68 10.57 284.87
						 11.63 285.33 C11.94 284.61 12.85 282.49 12.85 282.49 L14.45 282.71 C15.21 282.82 16.02 282.83 16.87 282.76
						 L18.33 282.63 L18.98 283.98 C18.98 283.98 19.27 284.72 19.56 285.44 C20.63 285.01 21.07 284.83 22.14 284.41
						 C21.87 283.74 21.03 281.62 21.03 281.62 L22.63 280.47 C23.08 280.1 23.6 279.58 24.13 278.93 L25.07 277.79
						 L26.5 278.28 C26.5 278.28 27.17 278.56 27.81 278.83 C28.26 277.77 28.45 277.33 28.89 276.27 ZM28.41 273.81
						 C28.41 273.81 28.4 273.87 28.39 273.92 C28.67 274.03 31.47 275.22 31.47 275.22 L28.86 281.41 C28.86 281.41
						 25.99 280.2 25.72 280.09 C25.69 280.13 25.66 280.17 25.66 280.17 C25.03 280.93 24.42 281.55 23.78 282.07
						 C23.78 282.07 23.57 282.22 23.43 282.32 C23.54 282.6 24.7 285.5 24.7 285.5 L18.46 288 C18.46 288 17.26 284.98
						 17.15 284.71 C17.1 284.72 17.04 284.72 17.04 284.72 C16.04 284.81 15.07 284.79 14.18 284.66 C14.18 284.66
						 14.12 284.65 14.07 284.64 C13.95 284.92 12.65 287.92 12.65 287.92 L6.49 285.25 C6.49 285.25 7.82 282.16
						 7.94 281.89 C7.9 281.86 7.86 281.82 7.86 281.82 C7.16 281.23 6.59 280.65 6.1 280.05 C6.1 280.05 5.96 279.85
						 5.86 279.71 C5.58 279.82 2.44 281.04 2.44 281.04 L0 274.78 C0 274.78 3.36 273.47 3.36 273.47 C3.36 273.47
						 3.41 273.45 3.46 273.43 C3.45 273.27 3.43 273.04 3.43 273.04 L3.37 272.2 C3.37 272.2 3.43 271.15 3.44 270.91
						 C3.18 270.8 0.03 269.54 0.03 269.54 L2.52 263.3 C2.52 263.3 5.65 264.55 5.92 264.66 C5.95 264.62 5.99 264.57
						 5.99 264.57 C6.6 263.77 7.24 263.1 7.93 262.53 C7.93 262.53 7.97 262.5 8.01 262.46 C7.9 262.19 6.61 259.14
						 6.61 259.14 L12.8 256.52 C12.8 256.52 14.05 259.49 14.17 259.76 C14.22 259.76 14.28 259.75 14.28 259.75
						 C15.26 259.62 16.24 259.6 17.19 259.69 C17.19 259.69 17.24 259.7 17.3 259.7 C17.41 259.43 18.61 256.5 18.61
						 256.5 L24.82 259.05 C24.82 259.05 23.64 261.93 23.53 262.21 C23.57 262.24 23.62 262.27 23.62 262.27 C24.49
						 262.95 25.2 263.63 25.77 264.35 C25.77 264.35 25.81 264.4 25.86 264.46 C26.13 264.34 28.95 263.18 28.95
						 263.18 L31.5 269.4 C31.5 269.4 28.69 270.56 28.42 270.67 C28.43 270.72 28.43 270.78 28.43 270.78 C28.5 271.32
						 28.53 271.77 28.53 272.2 C28.53 272.68 28.49 273.19 28.41 273.81 ZM18.59 275.52 C20.41 274.06 20.71 271.39
						 19.25 269.57 C17.79 267.74 15.13 267.45 13.31 268.91 C11.48 270.37 11.19 273.03 12.65 274.85 C14.1 276.68
						 16.76 276.98 18.59 275.52 ZM16.63 266.05 C18.28 266.23 19.75 267.05 20.79 268.34 C22.92 271.01 22.49 274.92
						 19.82 277.05 C18.53 278.09 16.91 278.56 15.26 278.38 C13.62 278.19 12.14 277.38 11.11 276.08 C10.2 274.94
						 9.75 273.58 9.75 272.22 C9.75 270.4 10.55 268.59 12.08 267.37 C13.37 266.34 14.99 265.87 16.63 266.05 Z"
					class="st6"/>
			<text x="33.5" y="274.95" class="st2" v:langID="1033"><v:paragraph/><v:tabList/>Binary</text>		</g>
		<g id="shape19-58" v:mID="19" v:groupContext="shape" v:layerMember="1"
				transform="translate(321.618,-90.5294) rotate(61.9275)">
			<title>Line-curve connector</title>
			<v:userDefs>
				<v:ud v:nameU="AntiScale" v:val="VT0(1):26"/>
				<v:ud v:nameU="Scale" v:val="VT0(1):26"/>
				<v:ud v:nameU="visVersion" v:val="VT0(14):26"/>
			</v:userDefs>
			<path d="M0 288 L7.77 284.39 L15.49 282.6 L23.16 282.61 L30.78 284.43 L31.1 284.59" class="st8"/>
		</g>
		<g id="shape20-64" v:mID="20" v:groupContext="shape" v:layerMember="1"
				transform="translate(564.21,26.2221) rotate(49.1073)">
			<title>Line-curve connector.20</title>
			<v:userDefs>
				<v:ud v:nameU="AntiScale" v:val="VT0(1):26"/>
				<v:ud v:nameU="Scale" v:val="VT0(1):26"/>
				<v:ud v:nameU="visVersion" v:val="VT0(14):26"/>
			</v:userDefs>
			<path d="M0 288 L5.51 286.02 L10.43 284.54 L14.77 283.58 L18.53 283.12 L21.7 283.17 L21.99 283.38" class="st8"/>
		</g>
		<g id="shape8-69" v:mID="8" v:groupContext="shape" v:layerMember="0" transform="translate(108,-222.75)">
			<title>Reverse brace</title>
			<desc>Front End</desc>
			<v:userDefs>
				<v:ud v:nameU="visVersion" v:prompt="" v:val="VT0(14):26"/>
				<v:ud v:nameU="msvStructureType" v:prompt="" v:val="VT4(Callout)"/>
				<v:ud v:nameU="msvSDTargetIntersection" v:prompt="" v:val="VT6(PNT(1.46875,-0.4375)):40"/>
				<v:ud v:nameU="msvSDCalloutNoHighlight" v:prompt="" v:val="VT0(0):5"/>
				<v:ud v:nameU="msvSDCalloutStyle" v:prompt="" v:val="VT0(13):26"/>
				<v:ud v:nameU="msvSDCalloutStyleCount" v:prompt="" v:val="VT0(20):26"/>
				<v:ud v:nameU="msvShapeCategories" v:prompt="" v:val="VT0(0):26"/>
				<v:ud v:nameU="Orientation" v:prompt="" v:val="VT0(0):26"/>
				<v:ud v:nameU="HideLeader" v:prompt="" v:val="VT0(1):5"/>
				<v:ud v:nameU="AttachToSide" v:prompt="" v:val="VT0(1):5"/>
				<v:ud v:nameU="ResizeWithText" v:prompt="" v:val="VT0(1):5"/>
				<v:ud v:nameU="Side" v:prompt="" v:val="VT0(4):26"/>
				<v:ud v:nameU="LeaderBegin" v:prompt="" v:val="VT4(Unused)"/>
				<v:ud v:nameU="LeaderEnd" v:prompt="" v:val="VT6(PNT(1.46875,-0.4375)):40"/>
				<v:ud v:nameU="WHBoxIntersection" v:prompt="" v:val="VT6(PNT(1.625,0)):40"/>
				<v:ud v:nameU="IsEndInterior" v:prompt="" v:val="VT0(0):5"/>
				<v:ud v:nameU="Extension" v:prompt="" v:val="VT0(0.0625):0"/>
				<v:ud v:nameU="Inset" v:prompt="" v:val="VT0(-0.046875):0"/>
				<v:ud v:nameU="SideMidpoint" v:prompt="" v:val="VT6(PNT(1.625,0)):40"/>
				<v:ud v:nameU="fnMidpointOffset" v:prompt="" v:val="VT6(PNT(1.625,0)):40"/>
			</v:userDefs>
			<v:textBlock v:margins="rect(4,6,4,6)"/>
			<v:textRect cx="117" cy="276.75" width="234" height="18.8036"/>
			<path d="M0 291.37 A3.37508 3.37508 0 0 1 3.37 288 L113.62 288 A3.37508 3.37508 -180 0 0 117 284.62 A3.37508 3.37508
						 -180 0 0 120.37 288 L230.62 288 A3.37508 3.37508 0 0 1 234 291.37" class="st9"/>
			<text x="97.24" y="279.45" class="st2" v:langID="1033"><v:paragraph v:horizAlign="1"/><v:tabList/>Front End</text>		</g>
		<g id="shape10-73" v:mID="10" v:groupContext="shape" v:layerMember="0" transform="translate(108,-36)">
			<title>Reverse brace.10</title>
			<desc>Back End</desc>
			<v:userDefs>
				<v:ud v:nameU="visVersion" v:prompt="" v:val="VT0(14):26"/>
				<v:ud v:nameU="msvStructureType" v:prompt="" v:val="VT4(Callout)"/>
				<v:ud v:nameU="msvSDTargetIntersection" v:prompt="" v:val="VT6(PNT(1.5509868421053,0.4375)):40"/>
				<v:ud v:nameU="msvSDCalloutNoHighlight" v:prompt="" v:val="VT0(0):5"/>
				<v:ud v:nameU="msvSDCalloutStyle" v:prompt="" v:val="VT0(13):26"/>
				<v:ud v:nameU="msvSDCalloutStyleCount" v:prompt="" v:val="VT0(20):26"/>
				<v:ud v:nameU="msvShapeCategories" v:prompt="" v:val="VT0(0):26"/>
				<v:ud v:nameU="Orientation" v:prompt="" v:val="VT0(0):26"/>
				<v:ud v:nameU="HideLeader" v:prompt="" v:val="VT0(1):5"/>
				<v:ud v:nameU="AttachToSide" v:prompt="" v:val="VT0(1):5"/>
				<v:ud v:nameU="ResizeWithText" v:prompt="" v:val="VT0(1):5"/>
				<v:ud v:nameU="Side" v:prompt="" v:val="VT0(2):26"/>
				<v:ud v:nameU="LeaderBegin" v:prompt="" v:val="VT4(Unused)"/>
				<v:ud v:nameU="LeaderEnd" v:prompt="" v:val="VT6(PNT(1.5509868421053,0.4375)):40"/>
				<v:ud v:nameU="WHBoxIntersection" v:prompt="" v:val="VT6(PNT(1.625,0.3125)):40"/>
				<v:ud v:nameU="IsEndInterior" v:prompt="" v:val="VT0(0):5"/>
				<v:ud v:nameU="Extension" v:prompt="" v:val="VT0(0.0625):0"/>
				<v:ud v:nameU="Inset" v:prompt="" v:val="VT0(-0.046875):0"/>
				<v:ud v:nameU="SideMidpoint" v:prompt="" v:val="VT6(PNT(1.625,0.3125)):40"/>
				<v:ud v:nameU="fnMidpointOffset" v:prompt="" v:val="VT6(PNT(1.625,0.3125)):40"/>
			</v:userDefs>
			<v:textBlock v:margins="rect(4,6,4,6)"/>
			<v:textRect cx="117" cy="276.75" width="234" height="18.8036"/>
			<path d="M0 262.12 A3.37508 3.37508 -180 0 0 3.37 265.5 L113.62 265.5 A3.37508 3.37508 0 0 1 117 268.87 A3.37508 3.37508
						 0 0 1 120.37 265.5 L230.62 265.5 A3.37508 3.37508 -180 0 0 234 262.12" class="st9"/>
			<text x="97.74" y="279.45" class="st2" v:langID="1033"><v:paragraph v:horizAlign="1"/><v:tabList/>Back End</text>		</g>
	</g>
</svg>
